<?xml version="1.0" standalone="no"?><!DOCTYPE svg PUBLIC "-//W3C//DTD SVG 1.1//EN" "http://www.w3.org/Graphics/SVG/1.1/DTD/svg11.dtd"><svg t="1668655274401" class="icon" viewBox="0 0 1975 1024" version="1.1" xmlns="http://www.w3.org/2000/svg" p-id="2719" xmlns:xlink="http://www.w3.org/1999/xlink" width="385.7421875" height="200"><path d="M1904.182111 170.666666C1904.182111 264.533332 1827.382111 341.333332 1733.515447 341.333332 1716.448783 341.333332 1703.648783 341.333332 1690.848783 337.066666L1387.915447 640C1392.182111 652.8 1392.182111 669.866666 1392.182111 682.666666 1392.182111 776.533328 1315.382111 853.333328 1221.515447 853.333328 1127.648783 853.333328 1050.848783 776.533328 1050.848783 682.666666 1050.848783 665.6 1050.848783 652.8 1055.115447 640L837.515447 422.4C824.715447 426.666666 807.648783 426.666666 794.848783 426.666666 782.048783 426.666666 764.982118 426.666666 752.182115 422.4L363.915449 810.666664C368.182115 823.466664 368.182115 840.533328 368.182115 853.333328 368.182115 947.2 291.382115 1024 197.515449 1024 103.648783 1024 26.848783 947.2 26.848783 853.333328 26.848783 759.466664 103.648783 682.666666 197.515449 682.666666 214.582115 682.666666 227.382115 682.666666 240.182115 686.933332L628.448781 298.666666C624.182115 285.866666 624.182115 268.8 624.182115 256 624.182115 162.133334 700.982115 85.333334 794.848783 85.333334 888.715447 85.333334 965.515447 162.133334 965.515447 256 965.515447 273.066666 965.515447 285.866666 961.248783 298.666666L1178.848783 516.266666C1191.648783 512 1208.715447 512 1221.515447 512 1234.315447 512 1251.382111 512 1264.182111 516.266666L1567.115447 213.333332C1562.848783 200.533332 1562.848783 183.466666 1562.848783 170.666666 1562.848783 76.8 1639.648783 0 1733.515447 0 1827.382111 0 1904.182111 76.8 1904.182111 170.666666L1904.182111 170.666666Z" p-id="2720" ></path></svg>