<?xml version="1.0" standalone="no"?><!DOCTYPE svg PUBLIC "-//W3C//DTD SVG 1.1//EN" "http://www.w3.org/Graphics/SVG/1.1/DTD/svg11.dtd"><svg t="1667142513922" class="icon" viewBox="0 0 1024 1024" version="1.1" xmlns="http://www.w3.org/2000/svg" p-id="2307" xmlns:xlink="http://www.w3.org/1999/xlink" width="200" height="200"><path d="M965.818182 635.112727v-368.64c0-132.561455-59.950545-196.980364-183.296-196.980363H262.842182c-123.298909 0-183.249455 64.418909-183.249455 197.026909v368.593454c0 132.608 59.950545 197.026909 183.249455 197.026909h109.102545a46.545455 46.545455 0 0 1 46.545455 46.545455v47.336727c70.795636-32.349091 186.414545-77.544727 302.731636-90.344727a46.266182 46.266182 0 0 1 17.780364-3.537455c104.634182 0 226.816-51.572364 226.816-197.026909zM782.522182 22.946909c150.388364 0 229.841455 85.597091 229.841454 243.572364v368.593454c0 157.975273-123.019636 243.572364-273.361454 243.572364h43.52c-191.441455 0-410.530909 122.368-410.530909 122.368v-122.414546H262.795636c-150.341818 0-229.794909-85.550545-229.794909-243.525818v-368.64C33.047273 108.590545 112.500364 22.993455 262.842182 22.993455h519.68z m-8.610909 354.304a58.088727 58.088727 0 1 1-0.093091 116.177455 58.088727 58.088727 0 0 1 0.093091-116.177455z m-502.365091 0a58.088727 58.088727 0 1 1-0.093091 116.177455 58.088727 58.088727 0 0 1 0.093091-116.177455z m251.205818 0a58.088727 58.088727 0 1 1-0.093091 116.177455 58.088727 58.088727 0 0 1 0.093091-116.177455z" p-id="2308"></path></svg>